<svg xmlns="http://www.w3.org/2000/svg" viewBox="0 0 240 240" width="240" height="240" role="img"><rect width="240" height="240" rx="18" fill="#F7F5F1"/><path d="M120 122 L 78 200 L 162 200 Z" fill="#C8A87C"/><path d="M120 122 L 78 200 L 120 200 Z" fill="#D9BD93"/><g transform="translate(1.6 27.44) scale(0.62)"><ellipse cx="150" cy="88" rx="26" ry="20" fill="#E04C58" opacity="1" transform="rotate(90 150 88)"/><ellipse cx="138.7" cy="111.45" rx="26" ry="20" fill="#E04C58" opacity="1" transform="rotate(141.43 138.7 111.45)"/><ellipse cx="113.32" cy="117.25" rx="26" ry="20" fill="#E04C58" opacity="1" transform="rotate(192.86 113.32 117.25)"/><ellipse cx="92.97" cy="101.02" rx="26" ry="20" fill="#E04C58" opacity="1" transform="rotate(244.29 92.97 101.02)"/><ellipse cx="92.97" cy="74.98" rx="26" ry="20" fill="#E04C58" opacity="1" transform="rotate(295.71 92.97 74.98)"/><ellipse cx="113.32" cy="58.75" rx="26" ry="20" fill="#E04C58" opacity="1" transform="rotate(347.14 113.32 58.75)"/><ellipse cx="138.7" cy="64.55" rx="26" ry="20" fill="#E04C58" opacity="1" transform="rotate(398.57 138.7 64.55)"/><ellipse cx="138.13" cy="96.45" rx="20" ry="15" fill="#C62A38" opacity="1" transform="rotate(115 138.13 96.45)"/><ellipse cx="121.74" cy="107.92" rx="20" ry="15" fill="#C62A38" opacity="1" transform="rotate(175 121.74 107.92)"/><ellipse cx="103.62" cy="99.47" rx="20" ry="15" fill="#C62A38" opacity="1" transform="rotate(235 103.62 99.47)"/><ellipse cx="101.87" cy="79.55" rx="20" ry="15" fill="#C62A38" opacity="1" transform="rotate(295 101.87 79.55)"/><ellipse cx="118.26" cy="68.08" rx="20" ry="15" fill="#C62A38" opacity="1" transform="rotate(355 118.26 68.08)"/><ellipse cx="136.38" cy="76.53" rx="20" ry="15" fill="#C62A38" opacity="1" transform="rotate(415 136.38 76.53)"/><ellipse cx="127.07" cy="96.43" rx="13" ry="10" fill="#8E1220" opacity="1" transform="rotate(140 127.07 96.43)"/><ellipse cx="114.17" cy="97.33" rx="13" ry="10" fill="#8E1220" opacity="1" transform="rotate(212 114.17 97.33)"/><ellipse cx="109.33" cy="85.34" rx="13" ry="10" fill="#8E1220" opacity="1" transform="rotate(284 109.33 85.34)"/><ellipse cx="119.23" cy="77.03" rx="13" ry="10" fill="#8E1220" opacity="1" transform="rotate(356 119.23 77.03)"/><ellipse cx="130.2" cy="83.88" rx="13" ry="10" fill="#8E1220" opacity="1" transform="rotate(428 130.2 83.88)"/><circle cx="120" cy="88" r="8" fill="#8E1220"/><path d="M112 88 A8 8 0 1 1 128 88 A6 6 0 1 0 116 88" fill="none" stroke="#E04C58" stroke-width="2.5" stroke-linecap="round"/></g><g transform="translate(89.6 27.44) scale(0.62)"><path d="M120 216 C 120 170, 120 120, 120 54" stroke="#4E7A46" stroke-width="5" fill="none" stroke-linecap="round"/><circle cx="94" cy="66" r="17" fill="#8FB58A"/><path d="M120 72 L 94 66" stroke="#3C6036" stroke-width="3"/><circle cx="146" cy="92" r="17" fill="#77A173"/><path d="M120 98 L 146 92" stroke="#3C6036" stroke-width="3"/><circle cx="94" cy="118" r="17" fill="#8FB58A"/><path d="M120 124 L 94 118" stroke="#3C6036" stroke-width="3"/><circle cx="146" cy="144" r="17" fill="#77A173"/><path d="M120 150 L 146 144" stroke="#3C6036" stroke-width="3"/><circle cx="94" cy="170" r="17" fill="#8FB58A"/><path d="M120 176 L 94 170" stroke="#3C6036" stroke-width="3"/><circle cx="146" cy="196" r="17" fill="#77A173"/><path d="M120 202 L 146 196" stroke="#3C6036" stroke-width="3"/><circle cx="120" cy="50" r="13" fill="#9CC097"/></g><g transform="translate(33.6 -5.36) scale(0.72)"><ellipse cx="150" cy="88" rx="26" ry="20" fill="#E04C58" opacity="1" transform="rotate(90 150 88)"/><ellipse cx="138.7" cy="111.45" rx="26" ry="20" fill="#E04C58" opacity="1" transform="rotate(141.43 138.7 111.45)"/><ellipse cx="113.32" cy="117.25" rx="26" ry="20" fill="#E04C58" opacity="1" transform="rotate(192.86 113.32 117.25)"/><ellipse cx="92.97" cy="101.02" rx="26" ry="20" fill="#E04C58" opacity="1" transform="rotate(244.29 92.97 101.02)"/><ellipse cx="92.97" cy="74.98" rx="26" ry="20" fill="#E04C58" opacity="1" transform="rotate(295.71 92.97 74.98)"/><ellipse cx="113.32" cy="58.75" rx="26" ry="20" fill="#E04C58" opacity="1" transform="rotate(347.14 113.32 58.75)"/><ellipse cx="138.7" cy="64.55" rx="26" ry="20" fill="#E04C58" opacity="1" transform="rotate(398.57 138.7 64.55)"/><ellipse cx="138.13" cy="96.45" rx="20" ry="15" fill="#C62A38" opacity="1" transform="rotate(115 138.13 96.45)"/><ellipse cx="121.74" cy="107.92" rx="20" ry="15" fill="#C62A38" opacity="1" transform="rotate(175 121.74 107.92)"/><ellipse cx="103.62" cy="99.47" rx="20" ry="15" fill="#C62A38" opacity="1" transform="rotate(235 103.62 99.47)"/><ellipse cx="101.87" cy="79.55" rx="20" ry="15" fill="#C62A38" opacity="1" transform="rotate(295 101.87 79.55)"/><ellipse cx="118.26" cy="68.08" rx="20" ry="15" fill="#C62A38" opacity="1" transform="rotate(355 118.26 68.08)"/><ellipse cx="136.38" cy="76.53" rx="20" ry="15" fill="#C62A38" opacity="1" transform="rotate(415 136.38 76.53)"/><ellipse cx="127.07" cy="96.43" rx="13" ry="10" fill="#8E1220" opacity="1" transform="rotate(140 127.07 96.43)"/><ellipse cx="114.17" cy="97.33" rx="13" ry="10" fill="#8E1220" opacity="1" transform="rotate(212 114.17 97.33)"/><ellipse cx="109.33" cy="85.34" rx="13" ry="10" fill="#8E1220" opacity="1" transform="rotate(284 109.33 85.34)"/><ellipse cx="119.23" cy="77.03" rx="13" ry="10" fill="#8E1220" opacity="1" transform="rotate(356 119.23 77.03)"/><ellipse cx="130.2" cy="83.88" rx="13" ry="10" fill="#8E1220" opacity="1" transform="rotate(428 130.2 83.88)"/><circle cx="120" cy="88" r="8" fill="#8E1220"/><path d="M112 88 A8 8 0 1 1 128 88 A6 6 0 1 0 116 88" fill="none" stroke="#E04C58" stroke-width="2.5" stroke-linecap="round"/></g><g transform="translate(26.4 64.96) scale(0.58)"><path d="M120 216 C 120 170, 120 120, 120 54" stroke="#4E7A46" stroke-width="5" fill="none" stroke-linecap="round"/><circle cx="94" cy="66" r="17" fill="#8FB58A"/><path d="M120 72 L 94 66" stroke="#3C6036" stroke-width="3"/><circle cx="146" cy="92" r="17" fill="#77A173"/><path d="M120 98 L 146 92" stroke="#3C6036" stroke-width="3"/><circle cx="94" cy="118" r="17" fill="#8FB58A"/><path d="M120 124 L 94 118" stroke="#3C6036" stroke-width="3"/><circle cx="146" cy="144" r="17" fill="#77A173"/><path d="M120 150 L 146 144" stroke="#3C6036" stroke-width="3"/><circle cx="94" cy="170" r="17" fill="#8FB58A"/><path d="M120 176 L 94 170" stroke="#3C6036" stroke-width="3"/><circle cx="146" cy="196" r="17" fill="#77A173"/><path d="M120 202 L 146 196" stroke="#3C6036" stroke-width="3"/><circle cx="120" cy="50" r="13" fill="#9CC097"/></g><g transform="translate(74.4 64.96) scale(0.58)"><ellipse cx="150" cy="88" rx="26" ry="20" fill="#E04C58" opacity="1" transform="rotate(90 150 88)"/><ellipse cx="138.7" cy="111.45" rx="26" ry="20" fill="#E04C58" opacity="1" transform="rotate(141.43 138.7 111.45)"/><ellipse cx="113.32" cy="117.25" rx="26" ry="20" fill="#E04C58" opacity="1" transform="rotate(192.86 113.32 117.25)"/><ellipse cx="92.97" cy="101.02" rx="26" ry="20" fill="#E04C58" opacity="1" transform="rotate(244.29 92.97 101.02)"/><ellipse cx="92.97" cy="74.98" rx="26" ry="20" fill="#E04C58" opacity="1" transform="rotate(295.71 92.97 74.98)"/><ellipse cx="113.32" cy="58.75" rx="26" ry="20" fill="#E04C58" opacity="1" transform="rotate(347.14 113.32 58.75)"/><ellipse cx="138.7" cy="64.55" rx="26" ry="20" fill="#E04C58" opacity="1" transform="rotate(398.57 138.7 64.55)"/><ellipse cx="138.13" cy="96.45" rx="20" ry="15" fill="#C62A38" opacity="1" transform="rotate(115 138.13 96.45)"/><ellipse cx="121.74" cy="107.92" rx="20" ry="15" fill="#C62A38" opacity="1" transform="rotate(175 121.74 107.92)"/><ellipse cx="103.62" cy="99.47" rx="20" ry="15" fill="#C62A38" opacity="1" transform="rotate(235 103.62 99.47)"/><ellipse cx="101.87" cy="79.55" rx="20" ry="15" fill="#C62A38" opacity="1" transform="rotate(295 101.87 79.55)"/><ellipse cx="118.26" cy="68.08" rx="20" ry="15" fill="#C62A38" opacity="1" transform="rotate(355 118.26 68.08)"/><ellipse cx="136.38" cy="76.53" rx="20" ry="15" fill="#C62A38" opacity="1" transform="rotate(415 136.38 76.53)"/><ellipse cx="127.07" cy="96.43" rx="13" ry="10" fill="#8E1220" opacity="1" transform="rotate(140 127.07 96.43)"/><ellipse cx="114.17" cy="97.33" rx="13" ry="10" fill="#8E1220" opacity="1" transform="rotate(212 114.17 97.33)"/><ellipse cx="109.33" cy="85.34" rx="13" ry="10" fill="#8E1220" opacity="1" transform="rotate(284 109.33 85.34)"/><ellipse cx="119.23" cy="77.03" rx="13" ry="10" fill="#8E1220" opacity="1" transform="rotate(356 119.23 77.03)"/><ellipse cx="130.2" cy="83.88" rx="13" ry="10" fill="#8E1220" opacity="1" transform="rotate(428 130.2 83.88)"/><circle cx="120" cy="88" r="8" fill="#8E1220"/><path d="M112 88 A8 8 0 1 1 128 88 A6 6 0 1 0 116 88" fill="none" stroke="#E04C58" stroke-width="2.5" stroke-linecap="round"/></g><g transform="translate(40.8 45.92) scale(0.66)"><ellipse cx="150" cy="88" rx="26" ry="20" fill="#E04C58" opacity="1" transform="rotate(90 150 88)"/><ellipse cx="138.7" cy="111.45" rx="26" ry="20" fill="#E04C58" opacity="1" transform="rotate(141.43 138.7 111.45)"/><ellipse cx="113.32" cy="117.25" rx="26" ry="20" fill="#E04C58" opacity="1" transform="rotate(192.86 113.32 117.25)"/><ellipse cx="92.97" cy="101.02" rx="26" ry="20" fill="#E04C58" opacity="1" transform="rotate(244.29 92.97 101.02)"/><ellipse cx="92.97" cy="74.98" rx="26" ry="20" fill="#E04C58" opacity="1" transform="rotate(295.71 92.97 74.98)"/><ellipse cx="113.32" cy="58.75" rx="26" ry="20" fill="#E04C58" opacity="1" transform="rotate(347.14 113.32 58.75)"/><ellipse cx="138.7" cy="64.55" rx="26" ry="20" fill="#E04C58" opacity="1" transform="rotate(398.57 138.7 64.55)"/><ellipse cx="138.13" cy="96.45" rx="20" ry="15" fill="#C62A38" opacity="1" transform="rotate(115 138.13 96.45)"/><ellipse cx="121.74" cy="107.92" rx="20" ry="15" fill="#C62A38" opacity="1" transform="rotate(175 121.74 107.92)"/><ellipse cx="103.62" cy="99.47" rx="20" ry="15" fill="#C62A38" opacity="1" transform="rotate(235 103.62 99.47)"/><ellipse cx="101.87" cy="79.55" rx="20" ry="15" fill="#C62A38" opacity="1" transform="rotate(295 101.87 79.55)"/><ellipse cx="118.26" cy="68.08" rx="20" ry="15" fill="#C62A38" opacity="1" transform="rotate(355 118.26 68.08)"/><ellipse cx="136.38" cy="76.53" rx="20" ry="15" fill="#C62A38" opacity="1" transform="rotate(415 136.38 76.53)"/><ellipse cx="127.07" cy="96.43" rx="13" ry="10" fill="#8E1220" opacity="1" transform="rotate(140 127.07 96.43)"/><ellipse cx="114.17" cy="97.33" rx="13" ry="10" fill="#8E1220" opacity="1" transform="rotate(212 114.17 97.33)"/><ellipse cx="109.33" cy="85.34" rx="13" ry="10" fill="#8E1220" opacity="1" transform="rotate(284 109.33 85.34)"/><ellipse cx="119.23" cy="77.03" rx="13" ry="10" fill="#8E1220" opacity="1" transform="rotate(356 119.23 77.03)"/><ellipse cx="130.2" cy="83.88" rx="13" ry="10" fill="#8E1220" opacity="1" transform="rotate(428 130.2 83.88)"/><circle cx="120" cy="88" r="8" fill="#8E1220"/><path d="M112 88 A8 8 0 1 1 128 88 A6 6 0 1 0 116 88" fill="none" stroke="#E04C58" stroke-width="2.5" stroke-linecap="round"/></g><path d="M84 150 Q 120 138, 156 150" stroke="#9E4A6C" stroke-width="7" fill="none" stroke-linecap="round"/></svg>
